<svg width="25" height="24" viewBox="0 0 25 24" fill="none" xmlns="http://www.w3.org/2000/svg">
<path d="M11.1666 4H4.16663C3.63619 4 3.12749 4.21071 2.75241 4.58579C2.37734 4.96086 2.16663 5.46957 2.16663 6V20C2.16663 20.5304 2.37734 21.0391 2.75241 21.4142C3.12749 21.7893 3.63619 22 4.16663 22H18.1666C18.6971 22 19.2058 21.7893 19.5808 21.4142C19.9559 21.0391 20.1666 20.5304 20.1666 20V13" stroke="#624DE3" stroke-width="2" stroke-linecap="round" stroke-linejoin="round"/>
<path d="M18.6666 2.49998C19.0645 2.10216 19.604 1.87866 20.1666 1.87866C20.7292 1.87866 21.2688 2.10216 21.6666 2.49998C22.0645 2.89781 22.2879 3.43737 22.2879 3.99998C22.2879 4.56259 22.0645 5.10216 21.6666 5.49998L12.1666 15L8.16663 16L9.16663 12L18.6666 2.49998Z" stroke="#624DE3" stroke-width="2" stroke-linecap="round" stroke-linejoin="round"/>
</svg>
